<svg id="Calque_1" data-name="Calque 1" xmlns="http://www.w3.org/2000/svg" xmlns:xlink="http://www.w3.org/1999/xlink" viewBox="0 0 1515.26 551.13"><defs><style>.cls-1{fill:#29346e;}.cls-2{fill:#fb5373;}.cls-3{fill:url(#Dégradé_sans_nom_44);}.cls-4{fill:url(#Dégradé_sans_nom_44-2);}</style><linearGradient id="Dégradé_sans_nom_44" x1="243.24" y1="534.87" x2="243.24" y2="5.63" gradientUnits="userSpaceOnUse"><stop offset="0" stop-color="#ea5374"/><stop offset="0.11" stop-color="#cb4e73"/><stop offset="0.34" stop-color="#924571"/><stop offset="0.54" stop-color="#653e70"/><stop offset="0.73" stop-color="#44386f"/><stop offset="0.88" stop-color="#30356e"/><stop offset="0.99" stop-color="#29346e"/></linearGradient><linearGradient id="Dégradé_sans_nom_44-2" x1="243.61" y1="551.13" x2="243.61" y2="0" xlink:href="#Dégradé_sans_nom_44"/></defs><path class="cls-1" d="M603.52,350.3V146.53H645v175.6h47.8V350.3Z"/><path class="cls-1" d="M723.77,350.3V146.53h88.81V175.2h-47.3v54.09h36.48v28.94H765.28v63.9h47.8V350.3Z"/><path class="cls-1" d="M875.72,350.3,837,146.53h36l24.15,140.88,22.64-140.88h37.49L918.49,350.3Z"/><path class="cls-1" d="M990.94,350.3V146.53h88.81V175.2h-47.3v54.09h36.48v28.94h-36.48v63.9h47.8V350.3Z"/><path class="cls-1" d="M1114,350.3V146.53h41.51v175.6h47.8V350.3Z"/><path class="cls-2" d="M1289.82,353.07q-23.16,0-36-7.92a42.17,42.17,0,0,1-18-22.9q-5.16-15-5.15-36.35V146.53h41V291.69a95.94,95.94,0,0,0,1.14,14.84,23,23,0,0,0,5,11.82q3.9,4.53,12,4.53,8.29,0,12.2-4.53a22.34,22.34,0,0,0,4.9-11.82,108.58,108.58,0,0,0,1-14.84V146.53h41V285.9q0,21.39-5.16,36.35a42.12,42.12,0,0,1-18,22.9Q1313,353.07,1289.82,353.07Z"/><path class="cls-2" d="M1390.7,350.3V146.53h64.65q18.36,0,29.94,6.91a42.09,42.09,0,0,1,17.23,20q5.67,13.09,5.66,31.7,0,21.88-7.42,34.22a41,41,0,0,1-20.25,17.48q-12.84,5.16-29.44,5.16h-18.86v88.3Zm41.51-117.48h14.59q9.06,0,14-2.9a14.73,14.73,0,0,0,6.67-9.18,61.27,61.27,0,0,0,1.76-16.1,74.33,74.33,0,0,0-1.39-15.6,16,16,0,0,0-6.16-9.81q-4.79-3.53-15.09-3.52h-14.34Z"/><path class="cls-2" d="M613,459.52h24V465H606.28V398.17H613Z"/><path class="cls-2" d="M644.93,424.69a22.91,22.91,0,0,1,8.89-9.37A25.21,25.21,0,0,1,666.67,412a23.34,23.34,0,0,1,12.85,3.44,20,20,0,0,1,7.79,8.79V412.79H694V465h-6.69V453.4a21,21,0,0,1-7.89,8.84,23.12,23.12,0,0,1-12.85,3.49,24.67,24.67,0,0,1-12.75-3.35,23.14,23.14,0,0,1-8.89-9.46,32.73,32.73,0,0,1,0-28.23Zm39.8,3.1a18.38,18.38,0,0,0-7-7.35,19.13,19.13,0,0,0-9.79-2.58,19.9,19.9,0,0,0-9.94,2.48,17.63,17.63,0,0,0-6.93,7.22,23.53,23.53,0,0,0-2.53,11.22A23.93,23.93,0,0,0,651,450a17.81,17.81,0,0,0,6.93,7.36,19.52,19.52,0,0,0,9.94,2.53,19.13,19.13,0,0,0,9.79-2.58,18.35,18.35,0,0,0,7-7.36,25.1,25.1,0,0,0,0-22.17Z"/><path class="cls-2" d="M735.32,461.57A15.15,15.15,0,0,1,729,450.25h6.88a9.9,9.9,0,0,0,4.16,7.12q3.68,2.72,9.89,2.72,5.45,0,8.55-2.58a8,8,0,0,0,3.11-6.4,6,6,0,0,0-1.72-4.4,12.36,12.36,0,0,0-4.35-2.72,66.76,66.76,0,0,0-7.12-2.15,72.11,72.11,0,0,1-9.46-3.06,16.1,16.1,0,0,1-6.16-4.54,13.08,13.08,0,0,1-.24-15.14,15.56,15.56,0,0,1,6.5-5.16,22.87,22.87,0,0,1,9.55-1.91q8.41,0,13.57,4.25a15.43,15.43,0,0,1,5.54,11.7H761a10.15,10.15,0,0,0-3.58-7.4q-3.3-2.82-9-2.82a13.28,13.28,0,0,0-8.22,2.39,7.19,7.19,0,0,0-3.15,5.92,7,7,0,0,0,1.86,5,12.79,12.79,0,0,0,4.64,3.06c1.84.73,4.33,1.54,7.45,2.43a69.54,69.54,0,0,1,9,3,15.56,15.56,0,0,1,5.74,4.2,11.25,11.25,0,0,1,2.48,7.36,12.82,12.82,0,0,1-2.29,7.5,15.69,15.69,0,0,1-6.4,5.21,22.32,22.32,0,0,1-9.46,1.91Q741,465.73,735.32,461.57Z"/><path class="cls-2" d="M779.22,424.69a23.14,23.14,0,0,1,9-9.37A25.84,25.84,0,0,1,801.3,412q9.65,0,15.9,4.78a21.57,21.57,0,0,1,8.08,13h-7.17a14.69,14.69,0,0,0-5.78-8.84,18.4,18.4,0,0,0-11-3.2,18.81,18.81,0,0,0-9.46,2.39,16.69,16.69,0,0,0-6.64,7.12,25,25,0,0,0-2.44,11.61,25.41,25.41,0,0,0,2.44,11.66,16.62,16.62,0,0,0,6.64,7.16,18.81,18.81,0,0,0,9.46,2.39,18.4,18.4,0,0,0,11-3.2,14.69,14.69,0,0,0,5.78-8.93h7.17a21.91,21.91,0,0,1-8.12,12.9q-6.31,4.86-15.86,4.87a25.74,25.74,0,0,1-13.09-3.3,23.17,23.17,0,0,1-9-9.36,32.69,32.69,0,0,1,0-28.38Z"/><path class="cls-2" d="M845.49,462.43a23.84,23.84,0,0,1-9.27-9.36,28.65,28.65,0,0,1-3.39-14.19,28.19,28.19,0,0,1,3.44-14.19,24,24,0,0,1,9.36-9.37,28.55,28.55,0,0,1,26.61,0,23.72,23.72,0,0,1,9.37,9.37,31.08,31.08,0,0,1-.05,28.33,23.79,23.79,0,0,1-9.46,9.41,27.35,27.35,0,0,1-13.38,3.3A26.56,26.56,0,0,1,845.49,462.43Zm22.79-4.87a17.91,17.91,0,0,0,7.12-7.07,26.31,26.31,0,0,0,0-23.22,17.55,17.55,0,0,0-7.07-7.07,20.68,20.68,0,0,0-19.11,0,17.26,17.26,0,0,0-7,7.07,26.94,26.94,0,0,0,0,23.22,17.39,17.39,0,0,0,7,7.07,19.76,19.76,0,0,0,9.51,2.34A20,20,0,0,0,868.28,457.56Z"/><path class="cls-2" d="M902.2,394.26V465h-6.69v-70.7Z"/><path class="cls-2" d="M915.81,424.69a23,23,0,0,1,8.89-9.37A25.21,25.21,0,0,1,937.55,412a23.34,23.34,0,0,1,12.85,3.44,20,20,0,0,1,7.79,8.79V412.79h6.69V465h-6.69V453.4a20.92,20.92,0,0,1-7.88,8.84,23.15,23.15,0,0,1-12.86,3.49,24.67,24.67,0,0,1-12.75-3.35,23.21,23.21,0,0,1-8.89-9.46,32.73,32.73,0,0,1,0-28.23Zm39.8,3.1a18.43,18.43,0,0,0-7-7.35,19.19,19.19,0,0,0-9.8-2.58,19.89,19.89,0,0,0-9.93,2.48,17.56,17.56,0,0,0-6.93,7.22,23.41,23.41,0,0,0-2.53,11.22A23.81,23.81,0,0,0,921.93,450a17.75,17.75,0,0,0,6.93,7.36,19.51,19.51,0,0,0,9.93,2.53,19.19,19.19,0,0,0,9.8-2.58,18.39,18.39,0,0,0,7-7.36,25.1,25.1,0,0,0,0-22.17Z"/><path class="cls-2" d="M991.87,414.51a21.61,21.61,0,0,1,11.13-2.67v7h-1.81q-7.28,0-11.66,3.92t-4.4,13.09V465h-6.68V412.79h6.68v9.27A16.38,16.38,0,0,1,991.87,414.51Z"/><path class="cls-2" d="M1011.22,401.52a4.8,4.8,0,0,1-1.43-3.54,4.65,4.65,0,0,1,1.43-3.49,5,5,0,0,1,6.88,0,4.68,4.68,0,0,1,1.43,3.49,4.84,4.84,0,0,1-1.43,3.54,4.85,4.85,0,0,1-6.88,0Zm6.78,11.27V465h-6.68V412.79Z"/><path class="cls-2" d="M1040.17,418.43v32.39q0,4.79,1.82,6.59c1.21,1.22,3.34,1.82,6.4,1.82h6.11V465h-7.16q-7.08,0-10.51-3.29t-3.44-10.85V418.43h-7.27v-5.64h7.27V399.7h6.78v13.09h14.33v5.64Z"/><path class="cls-2" d="M1110.78,441.46H1067.5a21,21,0,0,0,2.86,10.13,16.83,16.83,0,0,0,6.79,6.35,19.88,19.88,0,0,0,9.17,2.15,18.43,18.43,0,0,0,10.94-3.15,14.84,14.84,0,0,0,5.88-8.51h7.07A22.1,22.1,0,0,1,1102,460.9q-6.26,4.83-15.72,4.83a26.3,26.3,0,0,1-13.19-3.3,23.35,23.35,0,0,1-9.12-9.36,29.28,29.28,0,0,1-3.3-14.19,29.86,29.86,0,0,1,3.25-14.24,22.58,22.58,0,0,1,9.08-9.36,26.75,26.75,0,0,1,13.28-3.25,25.42,25.42,0,0,1,13,3.25A22.36,22.36,0,0,1,1108,424a24.88,24.88,0,0,1,3,12.18C1111,438.5,1110.91,440.25,1110.78,441.46Zm-8.93-15.39a16,16,0,0,0-6.64-6.21,20.3,20.3,0,0,0-9.18-2.1,18.17,18.17,0,0,0-12.7,4.78q-5.26,4.79-5.83,13.47h36.69A18.63,18.63,0,0,0,1101.85,426.07Zm-7.22-28.66L1075,408.78v-5.16l19.59-12.23Z"/><path class="cls-2" d="M1193,441.46h-43.28a21,21,0,0,0,2.87,10.13,16.81,16.81,0,0,0,6.78,6.35,19.88,19.88,0,0,0,9.17,2.15,18.43,18.43,0,0,0,10.94-3.15,14.84,14.84,0,0,0,5.88-8.51h7.07a22.1,22.1,0,0,1-8.17,12.47q-6.26,4.83-15.72,4.83a26.27,26.27,0,0,1-13.18-3.3,23.31,23.31,0,0,1-9.13-9.36,29.28,29.28,0,0,1-3.3-14.19,30,30,0,0,1,3.25-14.24,22.58,22.58,0,0,1,9.08-9.36,26.75,26.75,0,0,1,13.28-3.25,25.48,25.48,0,0,1,13,3.25,22.4,22.4,0,0,1,8.59,8.74,24.88,24.88,0,0,1,3,12.18C1193.14,438.5,1193.08,440.25,1193,441.46ZM1184,426.07a16,16,0,0,0-6.64-6.21,20.27,20.27,0,0,0-9.18-2.1,18.19,18.19,0,0,0-12.7,4.78q-5.26,4.79-5.83,13.47h36.69A18.63,18.63,0,0,0,1184,426.07Zm-7.22-28.66-19.58,11.37v-5.16l19.58-12.23Z"/><path class="cls-2" d="M1222.19,458.47l17.58-45.68h7.07L1225.92,465h-7.55l-20.93-52.17h7.17Z"/><path class="cls-2" d="M1263.8,462.43a23.88,23.88,0,0,1-9.26-9.36,31.15,31.15,0,0,1,0-28.38,24.11,24.11,0,0,1,9.37-9.37,26.91,26.91,0,0,1,13.28-3.29,27.21,27.21,0,0,1,13.33,3.29,23.63,23.63,0,0,1,9.36,9.37,28.59,28.59,0,0,1,3.39,14.19,28.29,28.29,0,0,1-3.44,14.14,23.76,23.76,0,0,1-9.45,9.41,27.41,27.41,0,0,1-13.38,3.3A26.57,26.57,0,0,1,1263.8,462.43Zm22.79-4.87a17.85,17.85,0,0,0,7.12-7.07,22.93,22.93,0,0,0,2.73-11.61,23.29,23.29,0,0,0-2.68-11.61,17.55,17.55,0,0,0-7.07-7.07,20.68,20.68,0,0,0-19.11,0,17.26,17.26,0,0,0-7,7.07,26.94,26.94,0,0,0,0,23.22,17.33,17.33,0,0,0,7,7.07,19.76,19.76,0,0,0,9.51,2.34A20,20,0,0,0,1286.59,457.56Z"/><path class="cls-2" d="M1320.51,394.26V465h-6.68v-70.7Z"/><path class="cls-2" d="M1379.18,412.79V465h-6.69v-9.17a16,16,0,0,1-7.07,7.45,22.13,22.13,0,0,1-10.7,2.58q-9.36,0-15.29-5.78t-5.92-16.77V412.79h6.59v29.72q0,8.5,4.25,13T1356,460q7.55,0,12-4.77t4.49-14.05V412.79Z"/><path class="cls-2" d="M1439.76,441.46h-43.29a21.12,21.12,0,0,0,2.87,10.13,16.83,16.83,0,0,0,6.79,6.35,19.88,19.88,0,0,0,9.17,2.15,18.43,18.43,0,0,0,10.94-3.15,14.84,14.84,0,0,0,5.88-8.51h7.07A22.1,22.1,0,0,1,1431,460.9q-6.27,4.83-15.72,4.83a26.3,26.3,0,0,1-13.19-3.3,23.35,23.35,0,0,1-9.12-9.36,29.28,29.28,0,0,1-3.3-14.19,29.86,29.86,0,0,1,3.25-14.24,22.52,22.52,0,0,1,9.08-9.36A26.75,26.75,0,0,1,1415.3,412a25.42,25.42,0,0,1,13,3.25,22.42,22.42,0,0,1,8.6,8.74,24.88,24.88,0,0,1,3,12.18C1440,438.5,1439.89,440.25,1439.76,441.46Zm-8.93-15.39a15.92,15.92,0,0,0-6.65-6.21,20.23,20.23,0,0,0-9.17-2.1,18.22,18.22,0,0,0-12.71,4.78q-5.25,4.79-5.83,13.47h36.7A18.63,18.63,0,0,0,1430.83,426.07Zm-7.22-28.66L1404,408.78v-5.16l19.59-12.23Z"/><path class="cls-2" d="M1497.47,441.46h-43.28a21,21,0,0,0,2.86,10.13,16.9,16.9,0,0,0,6.79,6.35,19.88,19.88,0,0,0,9.17,2.15,18.43,18.43,0,0,0,10.94-3.15,14.84,14.84,0,0,0,5.88-8.51h7.07a22.1,22.1,0,0,1-8.17,12.47q-6.26,4.83-15.72,4.83a26.27,26.27,0,0,1-13.18-3.3,23.31,23.31,0,0,1-9.13-9.36,29.28,29.28,0,0,1-3.3-14.19,30,30,0,0,1,3.25-14.24,22.58,22.58,0,0,1,9.08-9.36A26.75,26.75,0,0,1,1473,412a25.42,25.42,0,0,1,13,3.25,22.36,22.36,0,0,1,8.6,8.74,24.88,24.88,0,0,1,3,12.18C1497.66,438.5,1497.6,440.25,1497.47,441.46Zm-8.93-15.39a16,16,0,0,0-6.64-6.21,20.27,20.27,0,0,0-9.18-2.1,18.19,18.19,0,0,0-12.7,4.78q-5.26,4.79-5.83,13.47h36.69A18.63,18.63,0,0,0,1488.54,426.07Z"/><path class="cls-3" d="M211.91,161.48a31.33,31.33,0,1,1,31.32,31.32A31.35,31.35,0,0,1,211.91,161.48Z"/><path class="cls-4" d="M485.68,305.91c0-1.14,0-2.29-.07-3.43,0-.93-.05-1.86-.09-2.8,0-.67,0-1.34-.09-2s-.05-1.19-.09-1.79q-.06-1.31-.15-2.61c-.06-.95-.12-1.9-.2-2.84s-.15-2.05-.25-3.07-.18-2-.29-3v-.07c-.11-1-.21-2-.33-3s-.24-2-.37-3q-.76-6.06-1.84-12c-.13-.77-.27-1.54-.42-2.3-.08-.45-.16-.91-.25-1.35-.33-1.67-.68-3.34-1-5q-.66-3.08-1.41-6.1c-.23-1-.47-1.94-.73-2.91s-.49-1.93-.76-2.9c-.57-2.13-1.18-4.26-1.81-6.37-.24-.74-.46-1.48-.69-2.21s-.53-1.72-.81-2.58c-.05-.16-.11-.32-.16-.49-.28-.86-.57-1.73-.87-2.59q-1.43-4.26-3-8.43c-.34-.91-.7-1.8-1.05-2.69s-.6-1.54-.91-2.29c-.8-2-1.62-3.94-2.49-5.89-.38-.89-.78-1.79-1.19-2.69s-.81-1.78-1.23-2.66-.83-1.79-1.26-2.66c-.33-.7-.67-1.38-1-2.07-.52-1.06-1.05-2.12-1.6-3.19l-1.35-2.6c-1.36-2.59-2.78-5.15-4.24-7.69-.49-.84-1-1.69-1.47-2.52l-1.13-1.9c-1.13-1.87-2.28-3.72-3.47-5.56-.45-.71-.9-1.4-1.36-2.1-.6-.93-1.21-1.85-1.84-2.77-.35-.52-.7-1-1.07-1.56s-.79-1.16-1.2-1.75L441,168.9,439,166.05c-.46-.62-.91-1.24-1.37-1.85s-1-1.39-1.57-2.07q-6.27-8.2-13.23-15.86c-.59-.65-1.17-1.29-1.76-1.92-1.83-2-3.68-3.9-5.58-5.8-.42-.44-.84-.86-1.26-1.27q-1.92-1.92-3.92-3.81c-.58-.56-1.17-1.11-1.77-1.66-1.06-1-2.14-2-3.24-3l-1.84-1.64q-3.68-3.24-7.51-6.34c-.63-.52-1.27-1-1.91-1.53l-1.94-1.53-1.95-1.5c-.65-.49-1.3-1-2-1.48q-2-1.47-4-2.9l-2-1.42-2-1.4c-1.49-1-3-2-4.55-3-1.23-.8-2.47-1.58-3.7-2.37l-2.11-1.3c-.69-.43-1.4-.86-2.11-1.28l-2.13-1.25c-.7-.42-1.42-.83-2.14-1.24-1.43-.83-2.88-1.63-4.33-2.41-.72-.39-1.45-.79-2.18-1.17s-1.44-.77-2.17-1.14c-1.59-.83-3.21-1.64-4.82-2.43-.62-.3-1.24-.61-1.87-.9q-3.36-1.6-6.78-3.11c-.76-.35-1.52-.68-2.29-1l-2.23-1c-.86-.37-1.74-.72-2.61-1.08L329.9,82.8c-.84-.34-1.68-.65-2.53-1L325,81c-.79-.29-1.57-.56-2.37-.83l-2.38-.81c-.79-.26-1.59-.53-2.39-.78-1.59-.51-3.2-1-4.8-1.5l-2.42-.7-2.31-.66-1.7-.46c-.6-.17-1.21-.32-1.81-.48l-1.51-.38c-1.48-2.87-3-5.74-4.58-8.55C279.68,31.5,260.45,10.56,255,5a16.47,16.47,0,0,0-23.53,0C226,10.57,206.75,31.55,187.65,66c-1.59,2.85-3.13,5.73-4.61,8.6q-3.67.93-7.29,2l-2.94.87c-1.95.6-3.9,1.22-5.83,1.86-1,.32-1.93.66-2.89,1l-2.65.94c-.78.29-1.56.56-2.34.86-2.35.87-4.68,1.77-7,2.72-1.52.63-3,1.28-4.56,1.93-.75.32-1.51.65-2.26,1s-1.52.67-2.27,1l-2.25,1c-1.49.71-3,1.43-4.46,2.16-.74.36-1.48.73-2.21,1.11-2.2,1.13-4.4,2.28-6.56,3.46-1.45.79-2.88,1.6-4.31,2.41s-2.84,1.65-4.25,2.51l-2.1,1.28c-.7.42-1.4.86-2.09,1.29q-2.06,1.31-4.1,2.64c-1.38.9-2.75,1.83-4.11,2.77s-2.69,1.88-4,2.83q-1.77,1.27-3.53,2.59c-1.3,1-2.57,1.92-3.84,2.91-.81.63-1.62,1.26-2.41,1.9-.64.52-1.29,1-1.92,1.55L89,122.79c-1.26,1-2.5,2.1-3.74,3.17,0,0,0,0,0,0q-1.77,1.52-3.49,3.08l-2,1.79L78,132.5c-1.79,1.69-3.55,3.39-5.3,5.14l-1.51,1.52c-.73.74-1.46,1.48-2.17,2.23-.49.5-1,1-1.44,1.52-2.8,3-5.54,6-8.18,9.1-.53.63-1.06,1.25-1.58,1.89-2.11,2.5-4.15,5-6.15,7.64L50.3,163.3q-2.46,3.25-4.8,6.57l-1.79,2.58c-.29.41-.56.82-.84,1.24q-2.68,4-5.21,8.06c-.43.7-.86,1.39-1.29,2.1A241.49,241.49,0,0,0,14.24,231.4c-.31.91-.61,1.83-.9,2.73-1.23,3.8-2.38,7.64-3.42,11.51-.27,1-.52,1.93-.77,2.9Q8,252.89,7.07,257.31c-.13.61-.26,1.21-.4,1.83-.06.35-.14.69-.21,1-.16.83-.34,1.66-.5,2.49-.08.46-.17.91-.25,1.36-.14.72-.28,1.44-.4,2.17L5,268.25l-.3,1.84q-.92,5.57-1.55,11.21-.16,1.41-.3,2.82c-.41,3.91-.71,7.83-.92,11.79,0,.64-.06,1.28-.1,1.91s-.05,1.26-.08,1.88c0,.91-.06,1.82-.08,2.71,0,1.16-.06,2.34-.07,3.5s0,2.09,0,3.13A241.09,241.09,0,0,0,27,417.32h0c.18.37.37.73.57,1.1q2.31,4.56,4.81,9c.3.55.61,1.1.93,1.64s.51.9.77,1.33l1,1.65c.5.84,1,1.68,1.5,2.51s1,1.66,1.53,2.48l1.56,2.47c.52.82,1.05,1.64,1.59,2.45l1.62,2.42,1.43,2.1q4.26,6.17,8.86,12l1.46,1.84.7.86c.49.61,1,1.22,1.48,1.81,1.24,1.51,2.49,3,3.75,4.44l1.75,2,.68.76q.71.79,1.44,1.59c1.47,1.63,3,3.22,4.49,4.8.47.52,1,1,1.48,1.54.68.7,1.35,1.38,2,2.07s1.37,1.36,2.07,2,1.38,1.35,2.09,2c1.39,1.33,2.81,2.66,4.25,4,.6.56,1.2,1.1,1.81,1.64q3.5,3.11,7.1,6.08c.67.56,1.35,1.11,2,1.66,1.71,1.38,3.42,2.72,5.16,4.05L98.76,503q2.35,1.75,4.72,3.44l1.5,1.06.5.34a4.44,4.44,0,0,0,.38.27l.75.52c1.16.8,2.34,1.59,3.52,2.37,1,.68,2,1.35,3.07,2,.79.51,1.59,1,2.4,1.52l2.49,1.54,2.5,1.49,2.34,1.37c1.75,1,3.51,2,5.28,3l2.59,1.38,2.6,1.35c1.76.91,3.53,1.78,5.31,2.63q1.24.62,2.52,1.2,2.76,1.31,5.57,2.52c.63.28,1.26.56,1.89.82l1.6.68,1.81.75c.92.37,1.83.74,2.75,1.09.59.25,1.2.48,1.8.71.75.29,1.51.58,2.26.85l.9.34.57.21,2.79,1a.85.85,0,0,0,.17.06q1.75.63,3.54,1.2l.8.28c.91.31,1.84.6,2.76.89.63.21,1.27.41,1.9.59s1.42.45,2.14.66l1.76.51,2.45.69c.25.08.5.15.76.21a.29.29,0,0,0,.1,0,1.14,1.14,0,0,0,.25.06,2.9,2.9,0,0,0,.42.12c1.36.38,2.74.73,4.12,1.08,1,.25,2,.51,3,.74.17,0,.33.09.5.12,1.24.29,2.48.58,3.72.84,1.46.32,2.94.63,4.42.93l.5.1,2.73.52.11,0,1.41.26.48.07c1.07.2,2.14.39,3.22.56,1.41.23,2.84.45,4.26.65,1.17.18,2.33.33,3.5.48l.57.07,1.32.16a1.12,1.12,0,0,0,.27,0c.82.11,1.65.21,2.48.29.26,0,.51.07.78.09,1.05.12,2.11.22,3.17.32,1.39.13,2.78.25,4.18.35l.47,0,1.19.09,3.59.22h.2c1.26.06,2.53.13,3.81.17h.11c.41,0,.8,0,1.2,0h.05l3.39.09h.33c1.41,0,2.84,0,4.26,0h0l3.13,0,2.53,0,.81,0,2.13-.06,2.59-.1c1,0,2.08-.1,3.11-.17s2.32-.14,3.48-.23c.67-.05,1.33-.09,2-.16s1.28-.08,1.91-.15c2.06-.18,4.1-.39,6.14-.62l2.62-.32.72-.09,1.43-.19.18,0,2.46-.34.24-.05c1.11-.15,2.22-.32,3.34-.51.78-.12,1.57-.25,2.35-.4h.13c.52-.08,1-.17,1.55-.27l3-.55,1.85-.37,1.13-.22,2.93-.62h0c.59-.12,1.16-.26,1.74-.39l1.18-.27c.27,0,.54-.12.79-.18l.39-.09c.71-.17,1.4-.33,2.1-.51s1.7-.42,2.56-.64h0c1-.25,1.93-.5,2.88-.77s1.92-.52,2.88-.79h0l2.86-.83,1-.31c.6-.18,1.22-.37,1.83-.57,1-.28,1.9-.58,2.84-.89l2.81-.94h0l2.68-.92.2-.07c1.83-.65,3.66-1.32,5.47-2h0l2.76-1.08c.92-.35,1.83-.72,2.74-1.09l2.72-1.13h0l2.7-1.17q4.05-1.77,8-3.69L351.2,526c.88-.43,1.75-.88,2.63-1.33s1.73-.9,2.59-1.35,1.72-.91,2.58-1.38l1.94-1.07c.32-.16.62-.34.93-.52l2.24-1.27c.84-.49,1.69-1,2.52-1.47h0l1.73-1,1.78-1.08,1.47-.92h0c1.65-1,3.29-2.08,4.9-3.15l.35-.22c1.39-.93,2.76-1.86,4.13-2.8.21-.14.41-.27.61-.42q1.06-.73,2.13-1.5l2-1.44c.23-.17.48-.34.71-.52,1.36-1,2.71-2,4-3,.08-.08.17-.13.25-.2q2.31-1.77,4.57-3.6c.76-.61,1.51-1.21,2.25-1.83l2-1.66c.18-.15.36-.29.52-.45l1.46-1.24,1.13-1,1.22-1.06.82-.74c.55-.49,1.11-1,1.65-1.49,2.16-1.94,4.27-3.94,6.34-6,.59-.57,1.16-1.13,1.74-1.72a5.9,5.9,0,0,0,.5-.5c.62-.63,1.26-1.25,1.86-1.89s1.33-1.36,2-2.06a.17.17,0,0,0,.06-.06c.66-.69,1.31-1.39,2-2.08s1.32-1.42,2-2.14c2.61-2.87,5.15-5.79,7.61-8.79.5-.59,1-1.21,1.5-1.82,1.14-1.4,2.24-2.8,3.34-4.23.36-.45.72-.92,1.07-1.39,1-1.34,2-2.68,3-4q1.69-2.32,3.36-4.71l0,0c1-1.51,2.08-3,3.1-4.58q6.49-9.86,12.05-20.37c.76-1.43,1.5-2.88,2.23-4.33.3-.6.6-1.19.89-1.79.7-1.41,1.37-2.83,2-4.26q3-6.5,5.69-13.19a241.15,241.15,0,0,0,17-89.24C485.7,308,485.69,307,485.68,305.91Zm-328.06-89.3c.74-48.94,13.63-91.24,29.23-124.7,1.22-2.61,2.46-5.16,3.7-7.66l.06-.13c2.2-4.42,4.45-8.67,6.71-12.74,16.63-30,34-50.35,42.08-58.72a5.42,5.42,0,0,1,7.67,0c8.11,8.35,25.4,28.65,42,58.56q3.38,6.09,6.69,12.7c.06.1.11.21.17.33,1.24,2.5,2.48,5,3.69,7.66,15.54,33.27,28.37,75.31,29.22,123.91C349,235.91,361.41,264,361.41,297.11c0,21.1-5,39.48-13.87,54.83-.08.15-.17.28-.25.42s-.37.52-.57.77a3.47,3.47,0,0,1-.32.34,5.8,5.8,0,0,1-.52.48,6.54,6.54,0,0,1-.51.41c-.21.14-.43.28-.66.41l-.5.24h0a6.37,6.37,0,0,1-.61.23l-.63.18c-.24,0-.48.08-.72.1a5.68,5.68,0,0,1-.59,0,6.37,6.37,0,0,1-1.66-.22,316.9,316.9,0,0,0-31.77-6.94,221.91,221.91,0,0,1-8.63,21.79,12.87,12.87,0,0,1-11.77,7.25h-89A12.87,12.87,0,0,1,187,370.19a219.62,219.62,0,0,1-8.75-22c-11,1.79-21.5,4-31.35,6.67a6,6,0,0,1-1.62.22,5.68,5.68,0,0,1-.59,0,4.32,4.32,0,0,1-.72-.11,6.18,6.18,0,0,1-.84-.24l-.63-.27-.48-.25a5.26,5.26,0,0,1-.52-.35q-.27-.19-.54-.42a5.14,5.14,0,0,1-.41-.4c-.12-.12-.24-.25-.35-.38l-.13-.17a4.82,4.82,0,0,1-.35-.44h0c-.12-.18-.24-.37-.35-.57-8.67-15.23-13.57-33.45-13.57-54.31C125.82,264.38,137.89,236.62,157.62,216.61ZM456.48,399A231.16,231.16,0,0,1,35.36,409.18C48,399.05,62.42,395.85,70.44,395.85a40.76,40.76,0,0,1,40.31,34.74,11.79,11.79,0,0,0,11.66,10.08,11.93,11.93,0,0,0,5.12-1.16,58.14,58.14,0,0,1,67.23,12.4,11.78,11.78,0,0,0,8.56,3.69A11.42,11.42,0,0,0,207,455a11.74,11.74,0,0,0,8-9.71l7.2-56.8h36.1l13.17,86.66a11.81,11.81,0,0,0,9.73,9.88,10.51,10.51,0,0,0,1.94.16,11.84,11.84,0,0,0,10.47-6.36,40.56,40.56,0,0,1,36.15-22,41.12,41.12,0,0,1,10,1.23,12,12,0,0,0,2.86.35,11.79,11.79,0,0,0,11.77-12.61c-.07-1-.1-2.08-.1-3.34,0-32.07,26.49-56.61,58.18-61.65,22.39-3.57,37.29,2.22,47.41,9.6C458.81,393.3,457.68,396.14,456.48,399Z"/></svg>